<?xml version="1.0" encoding="iso-8859-1"?>
<!-- Generator: Adobe Illustrator 19.0.0, SVG Export Plug-In . SVG Version: 6.00 Build 0)  -->
<svg version="1.1" id="Capa_1" xmlns="http://www.w3.org/2000/svg" xmlns:xlink="http://www.w3.org/1999/xlink" x="0px" y="0px"
	 viewBox="0 0 56.48 56.48" style="enable-background:new 0 0 56.48 56.48;" xml:space="preserve">
<g>
	<g>
		<path d="M18.375,39.101c-0.141-0.466-0.485-0.739-0.923-0.908c-0.515-0.197-1.063-0.08-1.597-0.182c0,1.024,0,2.023,0,3
			c0.247,0,0.487-0.002,0.728,0c0.327,0.004,0.641-0.051,0.948-0.17C18.295,40.542,18.594,39.831,18.375,39.101z"/>
	</g>
</g>
<g>
	<g>
		<path d="M25.778,32.853c-0.137-0.119-0.276-0.215-0.467-0.213c-0.343,0.002-0.687,0-1.032,0c0,0.369,0,0.744,0,1.136
			c0.268,0,0.518,0.002,0.769,0c0.242-0.003,0.463-0.073,0.667-0.208C25.928,33.427,25.986,33.029,25.778,32.853z"/>
	</g>
</g>
<g>
	<g>
		<path d="M30.898,39.489c-0.261-0.241-0.576-0.311-0.932-0.284c-0.441,0.035-1.006,0.449-0.927,0.991
			c-0.038,0.256,0.073,0.478,0.261,0.65c0.369,0.343,0.932,0.414,1.377,0.175C31.272,40.703,31.406,39.958,30.898,39.489z"/>
	</g>
</g>
<g>
	<g>
		<path d="M18.05,33.106c-0.264-0.253-0.577-0.429-0.952-0.464c-0.209-0.02-0.418-0.045-0.628-0.055
			c-0.204-0.01-0.408-0.002-0.618-0.002c0,0.982,0,1.978,0,3.002c0.121-0.015,0.229-0.031,0.337-0.037
			c0.273-0.014,0.549-0.007,0.821-0.035c0.354-0.036,0.681-0.159,0.959-0.39C18.586,34.614,18.592,33.625,18.05,33.106z"/>
	</g>
</g>
<g>
	<g>
		<path d="M24.162,39.096c-0.428-0.191-0.853-0.156-1.261,0.059c-0.212,0.111-0.334,0.376-0.293,0.572c0.657,0,1.314,0,1.981,0
			C24.488,39.362,24.386,39.197,24.162,39.096z"/>
	</g>
</g>
<g>
	<g>
		<path d="M55.026,9.939H1.454C0.65,9.939,0,10.59,0,11.393v33.694c0,0.803,0.65,1.455,1.454,1.455h53.572
			c0.804,0,1.454-0.651,1.454-1.454V11.393C56.48,10.59,55.83,9.939,55.026,9.939z M14.51,31.917c0.773,0,1.549-0.007,2.322,0.001
			c0.645,0.007,1.266,0.132,1.838,0.438c0.487,0.258,0.878,0.62,1.059,1.149c0.204,0.593,0.14,1.174-0.238,1.695
			c-0.28,0.384-0.662,0.638-1.099,0.812c-0.483,0.191-0.985,0.27-1.507,0.267c-0.792-0.006-1.583,0.014-2.375,0.024
			C14.51,34.841,14.51,33.377,14.51,31.917z M19.717,40.239c-0.234,0.632-0.733,0.985-1.323,1.235
			c-0.403,0.172-0.824,0.259-1.261,0.265c-0.875,0.009-1.75,0.02-2.624,0.028c0-1.463,0-2.926,0-4.387
			c0.678,0,1.355,0.002,2.033-0.002c0.481-0.002,0.961,0.024,1.422,0.154c0.678,0.191,1.283,0.523,1.643,1.162
			C19.882,39.18,19.914,39.708,19.717,40.239z M23.281,41.096c0.596,0.131,1.189,0.072,1.771-0.088
			c0.151-0.043,0.292-0.125,0.443-0.193c0,0.222,0.005,0.447-0.003,0.674c-0.002,0.039-0.046,0.103-0.08,0.111
			c-0.303,0.072-0.605,0.158-0.914,0.19c-0.358,0.037-0.722,0.043-1.083,0.031c-0.514-0.017-1.004-0.14-1.436-0.435
			c-0.353-0.238-0.617-0.55-0.708-0.98c-0.113-0.531,0.025-0.989,0.405-1.378c0.458-0.467,1.03-0.635,1.661-0.695
			c0.383-0.034,0.753-0.006,1.117,0.097c0.496,0.139,0.919,0.392,1.158,0.875c0.163,0.33,0.228,0.681,0.195,1.066
			c-1.083,0-2.153,0-3.221,0C22.571,40.786,22.937,41.021,23.281,41.096z M20.532,36.241c0-1.447,0-2.888,0-4.34
			c0.433,0,0.871,0,1.319,0c0,1.441,0,2.883,0,4.34C21.408,36.241,20.974,36.241,20.532,36.241z M27.437,36.275
			c-0.396,0.001-0.794-0.002-1.191,0.003c-0.079,0-0.112-0.03-0.147-0.097c-0.231-0.445-0.466-0.888-0.707-1.326
			c-0.114-0.208-0.311-0.302-0.539-0.32c-0.186-0.014-0.376-0.002-0.574-0.002c0,0.58,0,1.148,0,1.73c-0.438,0-0.865,0-1.303,0
			c0-1.449,0-2.903,0-4.375c0.532,0,1.055,0,1.576,0c0.28,0,0.562,0.002,0.842,0c0.489-0.004,0.961,0.08,1.382,0.328
			c0.274,0.162,0.453,0.414,0.462,0.756c0.007,0.252-0.026,0.484-0.169,0.709c-0.192,0.3-0.485,0.403-0.793,0.486
			c0.518,0.623,0.806,1.398,1.267,2.09C27.497,36.265,27.468,36.275,27.437,36.275z M32.356,40.828
			c-0.169,0.411-0.467,0.686-0.86,0.875c-0.421,0.203-0.874,0.215-1.32,0.174c-0.39-0.035-0.772-0.14-1.072-0.426
			c-0.011-0.011-0.036-0.009-0.064-0.016c0,0.108,0,0.214,0,0.324c-0.437,0-0.86,0-1.296,0c0-1.569,0-3.138,0-4.719
			c0.415,0,0.833,0,1.281,0c0,0.629,0,1.258,0,1.924c0.558-0.521,1.214-0.55,1.87-0.502c0.455,0.035,0.878,0.204,1.197,0.562
			c0.203,0.224,0.321,0.489,0.375,0.784C32.528,40.158,32.493,40.495,32.356,40.828z M31.735,33.716c0,0.256,0,0.496,0,0.752
			c-0.718,0-1.436,0-2.163,0c0,0.358,0,0.696,0,1.049c0.756,0,1.51,0,2.275,0c0,0.254,0,0.498,0,0.752c-1.16,0-2.312,0-3.468,0
			c0-1.459,0-2.909,0-4.37c1.162,0,2.326,0,3.5,0c0,0.241,0,0.485,0,0.739c-0.769,0-1.532,0-2.306,0c0,0.361,0,0.711,0,1.078
			C30.29,33.716,31.01,33.716,31.735,33.716z M36.004,41.789c-0.426,0-0.841,0-1.262,0c0-1.069,0-2.132,0-3.207
			c0.415,0,0.833,0,1.262,0C36.004,39.646,36.004,40.711,36.004,41.789z M34.741,37.89c0-0.278,0-0.547,0-0.824
			c0.42,0,0.835,0,1.261,0c0,0.269,0,0.541,0,0.824C35.588,37.89,35.172,37.89,34.741,37.89z M33.723,34.685
			c0.182,0.397,0.525,0.595,0.924,0.722c0.503,0.161,1.019,0.156,1.537,0.142c0.199-0.007,0.394-0.052,0.615-0.082
			c0.021,0.234,0.043,0.469,0.065,0.709c-0.419,0.111-0.829,0.172-1.249,0.194c-0.539,0.028-1.062-0.042-1.576-0.187
			c-0.496-0.137-0.946-0.375-1.301-0.758c-0.288-0.311-0.447-0.682-0.507-1.106c-0.05-0.353-0.001-0.683,0.12-1.007
			c0.101-0.271,0.275-0.489,0.488-0.685c0.409-0.376,0.908-0.564,1.43-0.69c0.253-0.062,0.516-0.086,0.777-0.104
			c0.266-0.016,0.533-0.012,0.801-0.001c0.357,0.016,0.699,0.112,1.035,0.234c0.027,0.009,0.061,0.05,0.056,0.071
			c-0.032,0.207-0.071,0.416-0.105,0.601c-0.301-0.044-0.578-0.092-0.853-0.121c-0.211-0.022-0.424-0.038-0.635-0.028
			c-0.46,0.02-0.908,0.107-1.272,0.418c-0.21,0.178-0.339,0.415-0.405,0.688C33.586,34.033,33.575,34.364,33.723,34.685z
			 M35.743,28.633c-0.421,0.256-0.84,0.519-1.28,0.74c-0.562,0.282-1.144,0.525-1.752,0.692c-0.552,0.151-1.098,0.319-1.656,0.444
			c-0.406,0.092-0.823,0.143-1.239,0.182c-0.581,0.054-1.166,0.092-1.75,0.117c-0.407,0.018-0.816,0.018-1.223-0.002
			c-0.43-0.019-0.858-0.054-1.284-0.116c-0.477-0.07-0.954-0.16-1.423-0.274c-0.541-0.132-1.079-0.283-1.607-0.456
			c-0.365-0.118-0.719-0.27-1.061-0.44c-0.502-0.252-1.006-0.504-1.479-0.807c-0.453-0.289-0.883-0.623-1.289-0.976
			c-0.345-0.298-0.661-0.634-0.955-0.981c-0.438-0.514-0.791-1.085-1.062-1.709c-0.187-0.432-0.331-0.879-0.413-1.338
			c-0.09-0.507-0.15-1.023-0.074-1.543c0.054-0.371,0.084-0.747,0.152-1.116c0.045-0.245,0.128-0.485,0.21-0.721
			c0.211-0.603,0.512-1.161,0.884-1.68c0.322-0.445,0.689-0.846,1.096-1.215c0.468-0.423,0.977-0.792,1.525-1.099
			c0.456-0.256,0.93-0.493,1.416-0.685c0.579-0.229,1.173-0.419,1.772-0.591c0.44-0.125,0.896-0.199,1.345-0.286
			c0.335-0.065,0.672-0.121,1.011-0.17c0.217-0.032,0.436-0.05,0.655-0.063c0.399-0.025,0.796-0.041,1.195-0.062
			c0.015-0.001,0.029-0.018,0.044-0.027c0.291,0,0.581,0,0.871,0c0,1.96,0,3.92,0,5.891c-0.055,0.003-0.103,0.007-0.149,0.007
			c-0.45-0.009-0.899-0.039-1.346-0.024c-0.546,0.018-1.092,0.051-1.633,0.117c-0.569,0.07-1.134,0.179-1.697,0.286
			c-0.848,0.161-1.666,0.426-2.458,0.765c-0.551,0.235-1.078,0.511-1.568,0.858c-0.475,0.338-0.892,0.73-1.16,1.258
			c-0.211,0.417-0.24,0.859-0.141,1.31c0.147,0.668,0.5,1.222,0.945,1.73c0.411,0.471,0.88,0.875,1.399,1.214
			c0.438,0.286,0.9,0.538,1.363,0.785c0.747,0.398,1.548,0.665,2.363,0.873c0.481,0.124,0.975,0.204,1.468,0.27
			c0.473,0.062,0.952,0.099,1.428,0.116c0.454,0.015,0.913,0.019,1.363-0.032c0.851-0.095,1.673-0.328,2.446-0.699
			c0.562-0.27,1.086-0.608,1.562-1.021c0.494-0.426,0.928-0.903,1.289-1.442c0.496-0.738,0.844-1.544,1.029-2.414
			c0.083-0.394,0.143-0.796,0.174-1.198c0.033-0.432,0.045-0.868,0.027-1.301c-0.016-0.375-0.078-0.748-0.137-1.119
			c-0.048-0.303-0.097-0.61-0.193-0.901c-0.135-0.421-0.302-0.834-0.482-1.238c-0.187-0.425-0.459-0.806-0.746-1.173
			c-0.492-0.627-1.102-1.123-1.78-1.525c-0.467-0.279-0.975-0.504-1.485-0.704c-0.412-0.161-0.85-0.254-1.28-0.366
			c-0.19-0.049-0.068-0.184-0.127-0.3c0.262,0.015,0.49,0.019,0.719,0.042c0.27,0.028,0.539,0.061,0.805,0.114
			c0.58,0.115,1.162,0.224,1.732,0.374c0.472,0.125,0.938,0.291,1.397,0.463c0.837,0.314,1.617,0.745,2.353,1.25
			c0.613,0.421,1.158,0.919,1.66,1.463c0.441,0.48,0.803,1.024,1.105,1.603c0.297,0.572,0.509,1.182,0.613,1.819
			c0.066,0.404,0.103,0.821,0.087,1.23c-0.024,0.612-0.127,1.214-0.324,1.801c-0.184,0.553-0.433,1.071-0.746,1.556
			c-0.186,0.287-0.405,0.553-0.624,0.815c-0.171,0.204-0.358,0.393-0.547,0.578C36.67,27.978,36.227,28.336,35.743,28.633z
			 M28.332,20.667c0,2.869,0,5.729,0,8.614c-0.192-0.023-0.373-0.034-0.549-0.072c-0.311-0.067-0.616-0.146-0.923-0.226
			c-0.546-0.144-1.053-0.373-1.527-0.675c-0.298-0.191-0.596-0.396-0.859-0.632c-0.329-0.296-0.601-0.647-0.816-1.043
			c-0.161-0.3-0.28-0.615-0.326-0.946c-0.044-0.32-0.02-0.649-0.019-0.974c0-0.344,0.114-0.661,0.229-0.979
			c0.145-0.4,0.366-0.756,0.63-1.087c0.436-0.546,0.979-0.966,1.59-1.293c0.454-0.244,0.943-0.419,1.446-0.531
			c0.309-0.068,0.631-0.083,0.947-0.124C28.211,20.693,28.266,20.679,28.332,20.667z M41.418,41.849
			c-0.006,0.145-0.143,0.096-0.223,0.117c-0.125,0.034-0.257,0.042-0.386,0.062c-0.164,0-0.33,0-0.494,0
			c-0.1-0.02-0.199-0.04-0.301-0.059c-0.295-0.053-0.568-0.154-0.781-0.373c-0.145-0.148-0.221-0.336-0.225-0.541
			c-0.006-0.537-0.002-1.074-0.002-1.612c0-0.052,0-0.105,0-0.175c-0.34,0-0.672,0-1.009,0c0-0.235,0-0.456,0-0.693
			c0.33,0,0.661,0,1.002,0c0-0.285,0-0.555,0-0.836c0.441,0,0.869,0,1.312,0c0,0.269,0,0.542,0,0.826c0.361,0,0.709,0,1.068,0
			c0,0.234,0,0.459,0,0.699c-0.347,0-0.699,0-1.064,0c0,0.285,0,0.555,0,0.826c0,0.223,0.011,0.445-0.002,0.668
			c-0.014,0.196,0.089,0.31,0.24,0.385c0.273,0.139,0.562,0.123,0.865,0.057C41.418,41.417,41.424,41.633,41.418,41.849z
			 M41.969,32.645c-0.576,0-1.151,0-1.742,0c0,1.221,0,2.434,0,3.654c-0.42,0-0.825,0-1.245,0c0-1.214,0-2.425,0-3.654
			c-0.599,0-1.181,0-1.771,0c0-0.247,0-0.477,0-0.728c1.586,0,3.172,0,4.76,0C41.971,32.159,41.971,32.401,41.969,32.645z"/>
	</g>
</g>
<g>
</g>
<g>
</g>
<g>
</g>
<g>
</g>
<g>
</g>
<g>
</g>
<g>
</g>
<g>
</g>
<g>
</g>
<g>
</g>
<g>
</g>
<g>
</g>
<g>
</g>
<g>
</g>
<g>
</g>
</svg>
